<?xml version="1.0" encoding="utf-8"?>
<!-- Generator: Adobe Illustrator 25.2.0, SVG Export Plug-In . SVG Version: 6.00 Build 0)  -->
<svg version="1.1" id="Capa_1" xmlns="http://www.w3.org/2000/svg" xmlns:xlink="http://www.w3.org/1999/xlink" x="0px" y="0px"
	 viewBox="0 0 427.7 173" style="enable-background:new 0 0 427.7 173;" xml:space="preserve">
<style type="text/css">
	.st0{fill:#999999;}
	.st1{fill:#60B5EF;}
	.st2{fill:#42A0D3;}
</style>
<g>
	<g>
		<path class="st0" d="M234.1,99.5l-7.3,1.3c0-6.1-2.8-9.2-8.5-9.2c-3.5,0-5.3,1.5-5.3,4.3c0,2.2,3,4.4,9.1,6.8
			c9.2,3.8,13.9,8.5,13.9,14.4c0,9.2-5.9,13.9-17.7,13.9c-12.4,0-18.7-4.7-18.7-13.9l7.7-1.6c-0.1,0.9-0.2,1.7-0.2,2.5
			c0,2.4,1,4.5,3,6.2s4.3,2.7,7.1,2.7c3.6,0,5.4-1.6,5.4-4.6c0-2.1-2.9-4.3-8.7-6.7c-8.7-3.7-13.1-8.5-13.1-14.4
			c0-3.9,1.6-7.1,5-9.6c3.4-2.5,7.7-3.7,12.9-3.7C228.1,87.9,233.2,91.7,234.1,99.5z"/>
		<path class="st0" d="M277.6,73.5v56.6h-14.9v-3.5c-2.5,3-5.9,4.5-10,4.5c-9.2,0-13.9-7.1-13.9-21.3c0-14.6,4.9-21.9,14.7-21.9
			c3.9,0,6.9,1.7,9.2,5.1V74.4C267.3,74.4,272.2,74,277.6,73.5z M258.4,93.8c-2.5,0-3.7,2.3-3.7,6.9l-0.3,8.7l0.2,7.9
			c0,5.1,1.4,7.6,4.2,7.6c2.8,0,4.1-2.5,4.1-7.5l0.2-10l-0.3-6.8C262.3,96,260.8,93.8,258.4,93.8z"/>
		<path class="st0" d="M345,130.1h-14.9V99.1c0-2.7-0.8-4.1-2.3-4.1c-3.6,0-5.4,3.9-5.4,11.7v23.3h-14.9V99.8c0-3.1-0.7-4.6-2.2-4.6
			c-3.7,0-5.5,3.9-5.5,11.6v23.2h-15V88.8c5,0,10-0.3,14.9-1v7.1c3.5-4.7,7.9-7.1,13-7.1c4.3,0,7.5,2.2,9.6,6.6
			c3.3-4.5,7.4-6.7,12.4-6.7c6.8,0,10.3,3.5,10.3,10.4L345,130.1L345,130.1z"/>
		<path class="st0" d="M386.2,88.9l-12.1,16.4L388,130h-17.1l-7.7-13.5l-9.9,13.5h-5.7l13.2-17.8l-13-23.3h17.1l6.7,11.9l8.9-11.9
			H386.2z"/>
	</g>
	<path class="st1" d="M81.5,112.7l-5.8-19.3L95,99.2l-4.8,4.8l28.6,28.6l22.9-22.9L90.7,59.5c-1.2-1.1-3-1.1-4.2,0l-45.6,45.7
		c-1.2,1.2-1.2,3.1,0,4.2l48.9,48.1c1.2,1.1,3,1.1,4.2,0l20.9-20.9L86.2,108L81.5,112.7z"/>
	<path class="st1" d="M191.1,104.6l-48.9-48.1c-1.2-1.1-3-1.1-4.2,0l-21.1,21.1l28.9,28.9l4.7-4.7l5.8,19.3l-19.3-5.8l4.8-4.8
		L113,81.5l-22.7,22.7l50.9,50.3c1.2,1.1,3,1.1,4.2,0l45.6-45.6C192.2,107.7,192.2,105.7,191.1,104.6z"/>
	<path class="st2" d="M90.3,104.2L113,81.5l28.9,28.9l-22.7,22.7C119.3,133.2,91.5,105.4,90.3,104.2z"/>
</g>
</svg>
