<?xml version="1.0" encoding="utf-8"?>
<!-- Generator: Adobe Illustrator 25.2.0, SVG Export Plug-In . SVG Version: 6.00 Build 0)  -->
<svg version="1.1" id="Capa_1" xmlns="http://www.w3.org/2000/svg" xmlns:xlink="http://www.w3.org/1999/xlink" x="0px" y="0px"
	 viewBox="40 30 152 152" style="enable-background:new 0 0 200 173;" xml:space="preserve">
<style type="text/css">
	.st0{fill:#999999;}
	.st1{fill:#60B5EF;}
	.st2{fill:#42A0D3;}
</style>
<g>
	<path class="st1" d="M81.5,112.7l-5.8-19.3L95,99.2l-4.8,4.8l28.6,28.6l22.9-22.9L90.7,59.5c-1.2-1.1-3-1.1-4.2,0l-45.6,45.7
		c-1.2,1.2-1.2,3.1,0,4.2l48.9,48.1c1.2,1.1,3,1.1,4.2,0l20.9-20.9L86.2,108L81.5,112.7z"/>
	<path class="st1" d="M191.1,104.6l-48.9-48.1c-1.2-1.1-3-1.1-4.2,0l-21.1,21.1l28.9,28.9l4.7-4.7l5.8,19.3l-19.3-5.8l4.8-4.8
		L113,81.5l-22.7,22.7l50.9,50.3c1.2,1.1,3,1.1,4.2,0l45.6-45.6C192.2,107.7,192.2,105.7,191.1,104.6z"/>
	<path class="st2" d="M90.3,104.2L113,81.5l28.9,28.9l-22.7,22.7C119.3,133.2,91.5,105.4,90.3,104.2z"/>
</g>
</svg>
